<svg xmlns="http://www.w3.org/2000/svg" width="133.794" height="131.336" viewBox="0 0 133.794 131.336">
  <g id="_001-cooking" data-name="001-cooking" transform="translate(-389 -2548.14)">
    <g id="Group_116" data-name="Group 116">
      <g id="Group_115" data-name="Group 115">
        <path id="Path_2484" data-name="Path 2484" d="M520.337,2679.477H391.226a2.229,2.229,0,0,1-2.227-2.226v-8.9a2.229,2.229,0,0,1,2.227-2.227h11.98L400.6,2660.9a11.188,11.188,0,0,1-5.134-4.011,10.976,10.976,0,0,1-2.009-6.349v-4.862a6.662,6.662,0,0,1,2.226-12.947h40.069a6.662,6.662,0,0,1,2.227,12.947v4.862a10.976,10.976,0,0,1-2.009,6.349,11.188,11.188,0,0,1-5.135,4.011l-2.611,5.222h38.916l3.67-34.848-6.222,5.187a6.649,6.649,0,0,1-8.672-.1l-14.8-12.949-4.212-2.526a8.27,8.27,0,0,1-3.374-10.4v-8.914a6.685,6.685,0,0,1,4.452-6.268v-9.313h-2.227a6.685,6.685,0,0,1-6.678-6.678v-13.356a6.686,6.686,0,0,1,6.678-6.679h8.9a6.686,6.686,0,0,1,6.678,6.679v13.356a6.685,6.685,0,0,1-6.678,6.678h-2.227v9.313a6.685,6.685,0,0,1,4.452,6.268v6.026a8.34,8.34,0,0,1,1.5,1.8l2.425,4.04,9.077,7.261,7.513-9.391a2.224,2.224,0,0,1,.91-.676l6.033-2.414a19.877,19.877,0,0,1-4.924-25.167l1.148-11.49c-3.629-1.537-5.883-4.539-5.883-7.834a8.032,8.032,0,0,1,3.121-6.177,12.469,12.469,0,0,1,7.572-2.721,13.35,13.35,0,0,1,23.137,0,12.469,12.469,0,0,1,7.571,2.721,8.032,8.032,0,0,1,3.121,6.177c0,3.295-2.254,6.3-5.883,7.834l1.148,11.49a19.886,19.886,0,0,1-4.922,25.17l6.033,2.413a2.238,2.238,0,0,1,1.127,1l13.356,24.486a.08.08,0,0,1,0,.017.1.1,0,0,0,0,.017l.01.013a.1.1,0,0,1,.018.025l1.905,3.813a7.464,7.464,0,1,1-13.995,4.8l-.9-4.525-3.649-5.472,3.3,31.315h13.579a2.229,2.229,0,0,1,2.226,2.227v8.9A2.228,2.228,0,0,1,520.337,2679.477Zm-126.885-8.9v4.452H518.11v-4.452H393.452Zm82.141-42.295h0l-3.983,37.842h30.672l-3.984-37.842Zm-69.636,33.391h0l2.227,4.451h5.3v-4.451Zm11.981,0v4.451h5.3l2.226-4.451ZM397.9,2646.086v4.452a6.686,6.686,0,0,0,6.678,6.678h22.261a6.686,6.686,0,0,0,6.678-6.678v-4.452H397.9Zm119.015-6.311-5.113,1.277.574,2.874a3.011,3.011,0,1,0,5.645-1.936l-1.106-2.215Zm-121.242-2.594a2.226,2.226,0,0,0,0,4.452h40.069a2.226,2.226,0,1,0,0-4.452Zm103.451-24.34h0l3.232,12.284,7.826,11.74,4.59-1.146-11.593-21.255-4.055-1.623Zm-49.864,5.063h0l-3.586,3.586L458.838,2633a2.219,2.219,0,0,0,2.891.033l9.884-8.237,3.145-11.956-4.253,1.7-8.537,10.672a2.224,2.224,0,0,1-3.127.347l-9.574-7.66Zm30.495-6.556h0l-3.281,12.477h20.936l-3.283-12.477c-.045.017-.091.031-.136.045s-.089.027-.133.044c-.5.186-.941.335-1.358.456-.1.029-.2.053-.3.077l-.021.005c-.071.017-.142.035-.213.053-.417.107-.847.217-1.284.3-.146.028-.3.049-.439.069l-.218.031-.067.011h-.006c-.371.06-.755.122-1.141.157-.187.017-.377.024-.56.031-.1,0-.2.008-.3.013l-.283.018-.036,0c-.225.015-.458.031-.692.031s-.467-.016-.692-.031l-.036,0-.283-.018-.3-.013c-.173-.006-.369-.014-.56-.031-.348-.034-.7-.088-1.031-.141h-.008l-.174-.027-.185-.027-.034,0c-.143-.02-.291-.041-.437-.068-.442-.084-.878-.195-1.285-.3l-.178-.044c-.115-.028-.234-.057-.351-.092-.5-.146-.99-.321-1.358-.456l-.12-.039C479.859,2611.383,479.809,2611.367,479.76,2611.349Zm-38.586-1.549c-.1,0-.2,0-.3.012l-.024,0h-.011l-.057.005a3.893,3.893,0,0,0-1.2.321l-.045.025-.048.026a3.788,3.788,0,0,0-1.055.737,3.475,3.475,0,0,0-.349.433l-.036.05a4.855,4.855,0,0,0-.289.483.108.108,0,0,1-.016.022.11.11,0,0,0-.019.025,3.871,3.871,0,0,0,1.463,5.12l2.891,1.734,4.221-4.221-1.734-2.892a3.9,3.9,0,0,0-1.129-1.2l-.015-.008-.005,0h0l-.014-.008a3.9,3.9,0,0,0-1.193-.536c-.04-.011-.083-.02-.125-.029A4.128,4.128,0,0,0,441.175,2609.8Zm30.846-21.591h0a15.512,15.512,0,0,0-.657,4.452,15.682,15.682,0,0,0,8.849,14.033,15.87,15.87,0,0,0,1.544.643l.074.028a15.468,15.468,0,0,0,10.227,0l.073-.028a15.61,15.61,0,0,0,10.4-14.675,15.422,15.422,0,0,0-.659-4.452H472.02ZM440.2,2599.34a2.228,2.228,0,0,0-2.226,2.226l0,4.415c.045-.018.092-.033.137-.046s.077-.023.117-.038c.169-.063.346-.122.556-.187a8.256,8.256,0,0,1,1.349-.3c.132-.018.267-.023.4-.028h.006l.17-.008c.164-.009.328-.014.487-.014.225,0,.451.009.671.027.026,0,.053,0,.08,0l.088,0,.089,0a.9.9,0,0,1,.107.006.428.428,0,0,1,.078.019.479.479,0,0,0,.075.019h.017l.026,0v-3.869A2.228,2.228,0,0,0,440.2,2599.34Zm35.617-40.069c-3.62,0-6.678,2.039-6.678,4.452,0,1.777,1.8,3.479,4.372,4.14a2.214,2.214,0,0,1,1.665,2.378l-1.352,13.516h26.245l-1.353-13.518a2.212,2.212,0,0,1,1.665-2.378c2.575-.659,4.374-2.361,4.374-4.138,0-2.413-3.058-4.452-6.678-4.452a3.072,3.072,0,0,0-.342.025l-.032,0-.358.034c-.055,0-.111.007-.167.007a2.257,2.257,0,0,1-2.048-1.349,8.9,8.9,0,0,0-16.364,0,2.255,2.255,0,0,1-2.08,1.347c-.047,0-.092,0-.135,0l-.358-.034-.038,0A3.011,3.011,0,0,0,475.816,2559.271Zm-40.069,4.452a2.229,2.229,0,0,0-2.226,2.227v13.356a2.228,2.228,0,0,0,2.226,2.226h2.227v-17.808Zm6.683,0v17.81h2.22a2.232,2.232,0,0,0,2.229-2.23v-13.351a2.232,2.232,0,0,0-2.229-2.229Z" fill="#ff9100"/>
      </g>
    </g>
    <g id="Group_118" data-name="Group 118">
      <g id="Group_117" data-name="Group 117">
        <path id="Path_2485" data-name="Path 2485" d="M486.946,2654.99a8.914,8.914,0,0,1-8.9-8.9v-6.678a2.229,2.229,0,0,1,2.227-2.227h13.356a2.229,2.229,0,0,1,2.226,2.227v6.678A8.914,8.914,0,0,1,486.946,2654.99Zm-4.452-13.356v4.452a4.452,4.452,0,1,0,8.9,0v-4.452Z" fill="#ff9100"/>
      </g>
    </g>
    <g id="Group_120" data-name="Group 120">
      <g id="Group_119" data-name="Group 119">
        <rect id="Rectangle_22" data-name="Rectangle 22" width="4" height="12" transform="translate(413 2614)" fill="#ff9100"/>
      </g>
    </g>
    <g id="Group_122" data-name="Group 122">
      <g id="Group_121" data-name="Group 121">
        <rect id="Rectangle_23" data-name="Rectangle 23" width="4" height="9" transform="translate(424 2619)" fill="#ff9100"/>
      </g>
    </g>
    <g id="Group_124" data-name="Group 124">
      <g id="Group_123" data-name="Group 123">
        <rect id="Rectangle_24" data-name="Rectangle 24" width="3" height="9" transform="translate(403 2619)" fill="#ff9100"/>
      </g>
    </g>
    <g id="Group_126" data-name="Group 126">
      <g id="Group_125" data-name="Group 125">
        <rect id="Rectangle_25" data-name="Rectangle 25" width="4" height="4" transform="translate(413 2606)" fill="#ff9100"/>
      </g>
    </g>
    <g id="Group_128" data-name="Group 128">
      <g id="Group_127" data-name="Group 127">
        <rect id="Rectangle_26" data-name="Rectangle 26" width="3" height="4" transform="translate(403 2610)" fill="#ff9100"/>
      </g>
    </g>
    <g id="Group_130" data-name="Group 130">
      <g id="Group_129" data-name="Group 129">
        <rect id="Rectangle_27" data-name="Rectangle 27" width="4" height="4" transform="translate(424 2610)" fill="#ff9100"/>
      </g>
    </g>
  </g>
</svg>
