<svg xmlns="http://www.w3.org/2000/svg" width="131.337" height="131.336" viewBox="0 0 131.337 131.336">
  <g id="_004-chatting" data-name="004-chatting" transform="translate(-894 -2548.14)">
    <circle id="Ellipse_18" data-name="Ellipse 18" cx="2.29" cy="2.29" r="2.29" transform="translate(942.04 2557.18)" fill="#ff9100"/>
    <path id="Path_2495" data-name="Path 2495" d="M970.613,2556.9H955.29a2.189,2.189,0,1,0,0,4.378h15.323a2.189,2.189,0,1,0,0-4.378Z" fill="#ff9100"/>
    <path id="Path_2496" data-name="Path 2496" d="M957.479,2672.91a6.567,6.567,0,1,1,6.566-6.566A6.584,6.584,0,0,1,957.479,2672.91Zm0-8.756a2.189,2.189,0,1,0,2.189,2.19A2.2,2.2,0,0,0,957.479,2664.154Z" fill="#ff9100"/>
    <path id="Path_2497" data-name="Path 2497" d="M983.747,2679.477H931.212a10.957,10.957,0,0,1-10.945-10.944v-24.079h-19.7a6.585,6.585,0,0,1-6.567-6.566V2611.62a6.585,6.585,0,0,1,6.567-6.566h19.7v-45.969a10.958,10.958,0,0,1,10.945-10.945h52.535a10.958,10.958,0,0,1,10.945,10.945v15.323h24.078a6.586,6.586,0,0,1,6.567,6.567v52.534a6.586,6.586,0,0,1-6.567,6.567H994.692v28.456a10.957,10.957,0,0,1-10.945,10.944Zm-59.1-21.889v10.945a6.583,6.583,0,0,0,6.566,6.566h52.535a6.583,6.583,0,0,0,6.566-6.566v-10.945H924.646Zm0-13.134v8.756h65.668v-13.134H961.857a6.584,6.584,0,0,1-6.566-6.567v-33.928l-7.88-5.91a2.188,2.188,0,0,1,0-3.5l7.88-5.91v-3.283a6.585,6.585,0,0,1,6.566-6.567h28.456v-4.377H924.646v35.023H933.4a6.585,6.585,0,0,1,6.567,6.566v3.283l7.88,5.91a2.19,2.19,0,0,1,0,3.5l-7.88,5.91v7.662a6.585,6.585,0,0,1-6.567,6.566h-8.755Zm-24.079-35.023a2.194,2.194,0,0,0-2.189,2.189v26.267a2.195,2.195,0,0,0,2.189,2.189H933.4a2.195,2.195,0,0,0,2.189-2.189v-8.756a2.2,2.2,0,0,1,.876-1.751l6.422-4.815-6.422-4.816a2.2,2.2,0,0,1-.876-1.751v-4.377a2.194,2.194,0,0,0-2.189-2.189Zm61.29-30.645a2.195,2.195,0,0,0-2.189,2.189v4.378a2.2,2.2,0,0,1-.876,1.751l-6.421,4.816,6.421,4.815a2.2,2.2,0,0,1,.876,1.751v35.023a2.2,2.2,0,0,0,2.189,2.19h56.912a2.2,2.2,0,0,0,2.19-2.19v-52.534a2.195,2.195,0,0,0-2.19-2.189Zm-30.645-26.268a6.584,6.584,0,0,0-6.566,6.566v6.567h65.668v-6.567a6.584,6.584,0,0,0-6.566-6.566Z" fill="#ff9100"/>
    <path id="Path_2498" data-name="Path 2498" d="M929.023,2613.809H904.945a2.189,2.189,0,0,0,0,4.378h24.078a2.189,2.189,0,1,0,0-4.378Z" fill="#ff9100"/>
    <path id="Path_2499" data-name="Path 2499" d="M929.023,2622.565H904.945a2.189,2.189,0,1,0,0,4.378h24.078a2.189,2.189,0,1,0,0-4.378Z" fill="#ff9100"/>
    <path id="Path_2500" data-name="Path 2500" d="M922.456,2631.321H904.945a2.189,2.189,0,1,0,0,4.378h17.512a2.189,2.189,0,1,0,0-4.378Z" fill="#ff9100"/>
    <path id="Path_2501" data-name="Path 2501" d="M1005.636,2629.131H974.991a6.584,6.584,0,0,1-6.566-6.566v-3.745a6.853,6.853,0,0,1-.878-9.052,8.683,8.683,0,0,1-3.5-6.9,4.391,4.391,0,0,1,4.378-4.378h.158a15.343,15.343,0,0,1,15.164-13.134h13.134a15.342,15.342,0,0,1,15.163,13.134h.159a4.39,4.39,0,0,1,4.378,4.378,8.683,8.683,0,0,1-3.5,6.9,6.853,6.853,0,0,1-.878,9.052v3.745A6.586,6.586,0,0,1,1005.636,2629.131Zm-32.834-8.755v2.189a2.2,2.2,0,0,0,2.189,2.189h30.645a2.2,2.2,0,0,0,2.19-2.189v-2.189Zm1.791-8.785v.029h0c-.974,0-3.977.984-3.977,2.188A2.022,2.022,0,0,0,972.4,2616h35.819a2.023,2.023,0,0,0,1.793-2.189,3.019,3.019,0,0,1,.506-1.437c.166-.292.3-.522.226-.646-.042-.072-.151-.106-.335-.106v-.029c-.223.015-.462.029-.712.029-2.263,0-6.371-.75-7.922-1.97a10.45,10.45,0,0,0-1.048.958,2.729,2.729,0,0,1-2.5,1.012c-2.263,0-6.371-.75-7.922-1.97a10.486,10.486,0,0,0-1.046.957,2.729,2.729,0,0,1-2.5,1.013c-2.263,0-6.372-.75-7.923-1.97a10.45,10.45,0,0,0-1.046.957,2.729,2.729,0,0,1-2.5,1.014C975.05,2611.62,974.8,2611.605,974.593,2611.591Zm27.186-7.286a2.191,2.191,0,0,1,1.8.938,4.782,4.782,0,0,0,3.884,2h.052a4.548,4.548,0,0,0,4.691-4.378H968.424a4.212,4.212,0,0,0,1.376,3.094,4.832,4.832,0,0,0,3.315,1.284h.052a4.781,4.781,0,0,0,3.883-2,2.19,2.19,0,0,1,3.594,0,4.875,4.875,0,0,0,7.872,0,2.189,2.189,0,0,1,3.593,0,4.876,4.876,0,0,0,7.873,0A2.191,2.191,0,0,1,1001.779,2604.3Zm-18.032-14.575a11.007,11.007,0,0,0-10.724,8.756h34.583a11.006,11.006,0,0,0-10.725-8.756Z" fill="#ff9100"/>
  </g>
</svg>
