<svg xmlns="http://www.w3.org/2000/svg" width="147.979" height="132.652" viewBox="0 0 147.979 132.652">
  <g id="_006-delivery-man" data-name="006-delivery-man" transform="translate(-1390 -2548.14)">
    <path id="Path_2511" data-name="Path 2511" d="M1431.46,2680.792a18.914,18.914,0,0,1-12.03-4.29,17.772,17.772,0,0,1-6.248-10.7h-1.655l-.4,0a3.066,3.066,0,0,1-2.25-.774,2.56,2.56,0,0,1-.767-2,22.226,22.226,0,0,1,.888-5.568c-1.861-10.708.3-16.7,2.4-20.731a5.342,5.342,0,0,1-2.589-4.531v-5.649h-10.949A7.669,7.669,0,0,1,1390,2619.1v-24.049a7.215,7.215,0,0,1,2.3-5.267,8.017,8.017,0,0,1,5.551-2.185h25.095a7.669,7.669,0,0,1,7.853,7.452v27.39h9.386a19.577,19.577,0,0,1-.588-6.387c.2-10.431,2.2-19.223,5.933-26.131a28.619,28.619,0,0,1,9.184-10.5,18.589,18.589,0,0,1-5.377-13.5c0-9.807,8.249-17.785,18.389-17.785s18.39,7.978,18.39,17.785a2.117,2.117,0,0,1-2.168,2.056h-1.472a13.768,13.768,0,0,1,.208,2.369,14.5,14.5,0,0,1-12.092,13.982,33.035,33.035,0,0,1,1.078,8.942l5.407,4.409,13.154,1.009,15.175-4.757a8.725,8.725,0,0,1,2.541-.531,3.072,3.072,0,0,1,1.793.531,3.552,3.552,0,0,1,1.348,3.067v10.7a2.117,2.117,0,0,1-2.168,2.056h-2.58l3.958,12.971a1.952,1.952,0,0,1-.161,1.523,2.126,2.126,0,0,1-1.319,1.022,2.27,2.27,0,0,1-.606.082,2.163,2.163,0,0,1-2.079-1.484l-4.307-14.114h-6.163a73.032,73.032,0,0,1,3.643,15.36,56.118,56.118,0,0,1,.037,13.3,62.33,62.33,0,0,1-2.661,11.955,109.092,109.092,0,0,1-4.45,11.315h3.9l16.229-17.208-3.432-11.243a1.95,1.95,0,0,1,.16-1.522,2.129,2.129,0,0,1,1.319-1.024,2.284,2.284,0,0,1,.6-.082,2.165,2.165,0,0,1,2.081,1.485l3.283,10.754.362,0a22.583,22.583,0,0,1,7.21,1.177,22.184,22.184,0,0,1,6.277,3.3,21.094,21.094,0,0,1,4.83,5.068,19.985,19.985,0,0,1,2.868,6.486,1.955,1.955,0,0,1-.248,1.509,2.144,2.144,0,0,1-1.378.955l-3.077.671a15.147,15.147,0,0,1-3.026,10.652,16.623,16.623,0,0,1-9.766,6.187,17.563,17.563,0,0,1-3.75.407,17.172,17.172,0,0,1-8.771-2.407,15.768,15.768,0,0,1-6.74-7.844l-2.428.53a4.868,4.868,0,0,1-1.029.135,2.288,2.288,0,0,1-1.066-.247,2.38,2.38,0,0,1-1.22-1.577,19.516,19.516,0,0,1-.35-2.047h-45.335a17.775,17.775,0,0,1-6.248,10.7A18.915,18.915,0,0,1,1431.46,2680.792Zm-13.874-14.99h0a14.286,14.286,0,0,0,27.749,0Zm111.365-2.855h0l-23.513,5.132a11.734,11.734,0,0,0,4.772,5.288,12.684,12.684,0,0,0,6.478,1.778,13.012,13.012,0,0,0,2.768-.3,11.727,11.727,0,0,0,9.495-11.9Zm-12.211-15.991c-.3,0-.611.008-.917.023l-16.518,17.514c.015.235.033.461.058.689l33.719-7.358A17.453,17.453,0,0,0,1516.74,2646.956Zm-85.01-1.813a19.085,19.085,0,0,0-18.446,13.07c-.007.024-.015.049-.024.072a18.261,18.261,0,0,0-.716,3.406h38.366C1449.83,2652.258,1441.585,2645.143,1431.73,2645.143Zm0-4.111a23.994,23.994,0,0,1,16.72,6.628,22.554,22.554,0,0,1,4.706,6.444,21.92,21.92,0,0,1,2.108,7.587l32.254-.007c.885-1.93,1.638-3.643,2.3-5.235h-22.507c-2.917,0-4.4-1.259-4.4-3.742v-15.09h-17.11a2.058,2.058,0,1,1,0-4.111H1462.9a8.582,8.582,0,0,0-.332-2.686c-.109-.275-.2-.512-1.4-.512l-7.783-.007c-4.875,0-8.362-1.123-10.66-3.419-.085-.085-.168-.175-.248-.262l-.06-.066h-29.283v5.649a1.356,1.356,0,0,0,1.371,1.3h21.58a2.058,2.058,0,1,1,0,4.111h-20.307a23.19,23.19,0,0,0-3.163,12.7,23.384,23.384,0,0,1,8.209-6.759A24.329,24.329,0,0,1,1431.73,2641.032Zm35.52,6.4v4.908h15.458a5.712,5.712,0,0,0-1.495-3.514,5.523,5.523,0,0,0-3.858-1.393Zm2.43-38.606c-.469,1.968-1.006,3.893-1.595,5.721a14.737,14.737,0,0,1,7.377,4.694c2.695,3.232,4.061,7.753,4.061,13.438v10.848a9.132,9.132,0,0,1,4.825,2.458,9.776,9.776,0,0,1,2.71,6.355h4.373c3.749-10.245,6.641-23.315-.34-42.579h-19.249a2.243,2.243,0,0,1-1.18-.332l-.982-.6Zm-25.776,9.324c.086,2.735.73,4.667,1.969,5.9,1.437,1.435,3.9,2.135,7.52,2.138l7.781.007c2.775,0,4.607,1.066,5.447,3.165.629,1.574.629,3.515.629,6.2v7.756h7.938v-10.642c0-12.083-7.016-14.186-10.032-14.53Zm-49.569-6.321v7.275a3.437,3.437,0,0,0,3.518,3.341h28.613v-10.615Zm63.994-29.713h0a23.32,23.32,0,0,0-8.365,8.642c-3.535,5.954-5.541,13.787-5.963,23.281h19.713a73.139,73.139,0,0,0,2.078-7.608l-5.994-3.689c-3.271-2.015-4.973-4.862-4.669-7.811a7.331,7.331,0,0,1,4.774-5.949,7.976,7.976,0,0,1,2.842-.526,8.588,8.588,0,0,1,4.434,1.286,23.123,23.123,0,0,0-1.047-5.211,16.064,16.064,0,0,1-2.743-.513,18.562,18.562,0,0,1-5.06-1.9Zm-64,21.227v4.37h32.13v-4.37Zm91.166-.886h0v3.193h5.607c.727,0,.9-.573.925-1.053a1.655,1.655,0,0,0-1.706-1.77l-4.826-.37Zm21.259-4.611-11.311,3.546.005.009,0,.006a5.67,5.67,0,0,1,.8,4.226.035.035,0,0,0,0,.007.028.028,0,0,1,0,.01h10.5v-7.8h0Zm-44.019-5.272a3.417,3.417,0,0,0-1.221.225,3.15,3.15,0,0,0-2.073,2.533c-.142,1.389.822,2.8,2.716,3.963l10.325,6.355h8.677v-3.525l-5.134-.394a2.223,2.223,0,0,1-1.239-.49l-9.266-7.557A4.449,4.449,0,0,0,1462.736,2592.571Zm-64.883-.859a3.437,3.437,0,0,0-3.518,3.341v4.179h32.131v-4.179a3.437,3.437,0,0,0-3.518-3.341Zm68.582-23.731h0c-.123.013-.224.027-.3.042a2.268,2.268,0,0,0-.022.337v12.025a11.333,11.333,0,0,0,1.556.109h.014a10.435,10.435,0,0,0,10.668-10.144,9.762,9.762,0,0,0-.289-2.369h-11.626Zm1.294-15.728a13.883,13.883,0,0,0-14.053,13.673c0,6.091,3.028,11.044,8.1,13.25V2568.36c0-1.873.756-4.171,4.355-4.481.057-.006.118-.008.2-.008h15.3A14.027,14.027,0,0,0,1467.729,2552.252Z" fill="#ff9100"/>
  </g>
</svg>
