<svg xmlns="http://www.w3.org/2000/svg" width="123" height="18" viewBox="0 0 123 18">
  <g id="Group_12" data-name="Group 12" transform="translate(-459 -5995)">
    <text id="_4.9" data-name="4.9" transform="translate(561 6009)" fill="#302e29" font-size="15" font-family="Raleway-SemiBold, Raleway" font-weight="600"><tspan x="0" y="0">4.9</tspan></text>
    <g id="Group_110" data-name="Group 110">
      <path id="Icon_material-star" data-name="Icon material-star" d="M467.43,6009.105l5.21,3.145-1.383-5.927,4.6-3.988-6.061-.514-2.369-5.589-2.369,5.589-6.061.514,4.6,3.988-1.383,5.927Z" fill="#ff9100"/>
      <path id="Icon_material-star-2" data-name="Icon material-star" d="M524.457,6009.105l5.21,3.145-1.383-5.927,4.6-3.988-6.061-.514-2.369-5.589-2.369,5.589-6.061.514,4.6,3.988-1.383,5.927Z" fill="#ff9100"/>
      <path id="Icon_material-star-3" data-name="Icon material-star" d="M505.689,6009.105l5.21,3.145-1.383-5.927,4.6-3.988-6.061-.514-2.369-5.589-2.369,5.589-6.061.514,4.6,3.988-1.383,5.927Z" fill="#ff9100"/>
      <path id="Icon_material-star-4" data-name="Icon material-star" d="M486.2,6009.105l5.21,3.145-1.383-5.927,4.6-3.988-6.061-.514-2.369-5.589-2.369,5.589-6.061.514,4.6,3.988-1.383,5.927Z" fill="#ff9100"/>
      <path id="Icon_material-star-half" data-name="Icon material-star-half" d="M538.735,6012.251v0l1.385-5.926-4.6-3.988,6.061-.515,2.369-5.589,2.369,5.582,6.061.522-4.595,3.988,1.374,5.925-5.21-3.143-5.21,3.145Zm5.213-12.562h0v7.839l3.178,1.922-.842-3.607,2.8-2.428-3.692-.321Z" fill="#ff9100"/>
    </g>
  </g>
</svg>
