<svg xmlns="http://www.w3.org/2000/svg" width="169" height="27" viewBox="0 0 169 27">
  <g id="Group_5" data-name="Group 5" transform="translate(-308 -3979)">
    <text id="_4.9" data-name="4.9" transform="translate(445 4001)" fill="#302e29" font-size="23" font-family="Raleway-SemiBold, Raleway" font-weight="600"><tspan x="0" y="0">4.9</tspan></text>
    <path id="Icon_material-star" data-name="Icon material-star" d="M319.679,4000.894l7.217,4.356-1.915-8.21,6.377-5.524-8.4-.712-3.282-7.743L316.4,3990.8l-8.4.712,6.376,5.524-1.915,8.21Z" fill="#ff9100"/>
    <path id="Icon_material-star-2" data-name="Icon material-star" d="M398.679,4000.894l7.217,4.356-1.915-8.21,6.376-5.524-8.4-.712-3.282-7.743L395.4,3990.8l-8.4.712,6.377,5.524-1.915,8.21Z" fill="#ff9100"/>
    <path id="Icon_material-star-3" data-name="Icon material-star" d="M372.679,4000.894l7.217,4.356-1.915-8.21,6.377-5.524-8.4-.712-3.282-7.743L369.4,3990.8l-8.4.712,6.376,5.524-1.915,8.21Z" fill="#ff9100"/>
    <path id="Icon_material-star-4" data-name="Icon material-star" d="M345.679,4000.894l7.217,4.356-1.915-8.21,6.376-5.524-8.4-.712-3.282-7.743L342.4,3990.8l-8.4.712,6.377,5.524-1.915,8.21Z" fill="#ff9100"/>
    <path id="Op_component_1" data-name="Op component 1" d="M437.357,3991.516l-8.4-.724-3.282-7.731L422.4,3990.8l-8.4.712,6.376,5.524-1.915,8.21,7.217-4.356,7.217,4.356-1.9-8.21Z" fill="#ff9100"/>
    <path id="Op_component_2" data-name="Op component 2" d="M425.679,3998.71v-10.861l2,4.719,5.115.444-3.877,3.364,1.168,5Z" fill="#ff9100"/>
  </g>
</svg>
