<svg xmlns="http://www.w3.org/2000/svg" width="109" height="108" viewBox="0 0 109 108">
  <g id="Group_1856" data-name="Group 1856" transform="translate(-783 -2944)">
    <g id="Group_1855" data-name="Group 1855">
      <g id="Ellipse_27" data-name="Ellipse 27" transform="translate(783 2944)" fill="none" stroke="#ee6d52" stroke-width="2">
        <ellipse cx="54.5" cy="54" rx="54.5" ry="54" stroke="none"/>
        <ellipse cx="54.5" cy="54" rx="53.5" ry="53" fill="none"/>
      </g>
      <path id="Path_84" data-name="Path 84" d="M49.9,0H4.047A4.046,4.046,0,0,0,0,4.046V36.415a4.046,4.046,0,0,0,4.046,4.046H21.58v-2.7H4.047A1.349,1.349,0,0,1,2.7,36.415V4.046A1.349,1.349,0,0,1,4.047,2.7H49.9a1.349,1.349,0,0,1,1.349,1.349V28.322h2.7V4.046A4.046,4.046,0,0,0,49.9,0Z" transform="translate(805.397 2969.398)" fill="#ee6d52"/>
      <rect id="Rectangle_117" data-name="Rectangle 117" width="2.697" height="8.092" transform="translate(821.583 3008.51)" fill="#ee6d52"/>
      <path id="Path_85" data-name="Path 85" d="M46.714,228.046a1.349,1.349,0,0,1-1.349-1.349V224h-2.7v2.7a4.046,4.046,0,0,0,4.046,4.046h2.7v-2.7Z" transform="translate(768.125 2773.721)" fill="#ee6d52"/>
      <rect id="Rectangle_118" data-name="Rectangle 118" width="2.697" height="2.697" transform="translate(810.793 2992.326)" fill="#ee6d52"/>
      <path id="Path_86" data-name="Path 86" d="M217,196.282A14.653,14.653,0,1,0,217,217,14.653,14.653,0,0,0,217,196.282ZM206.632,218.6a11.956,11.956,0,1,1,11.96-11.952A11.956,11.956,0,0,1,206.632,218.6Z" transform="translate(637.687 2801.684)" fill="#ee6d52"/>
      <path id="Path_87" data-name="Path 87" d="M408.486,402.8l-8.466-8.463a1.348,1.348,0,0,0-1.907,0l-3.763,3.763a1.349,1.349,0,0,0,0,1.907l8.466,8.467a1.348,1.348,0,0,0,.953.4h0a1.348,1.348,0,0,0,.953-.4l3.763-3.763A1.349,1.349,0,0,0,408.486,402.8Zm-4.716,2.813-6.559-6.56,1.856-1.856,6.559,6.56Z" transform="translate(461.254 2625.266)" fill="#ee6d52"/>
      <rect id="Rectangle_119" data-name="Rectangle 119" width="2.697" height="6.652" transform="translate(852.781 3018.688) rotate(-45)" fill="#ee6d52"/>
      <path id="Path_88" data-name="Path 88" d="M309.334,234.667v2.7a6.752,6.752,0,0,1,6.743,6.743h2.7A9.451,9.451,0,0,0,309.334,234.667Z" transform="translate(535.176 2764.403)" fill="#ee6d52"/>
      <rect id="Rectangle_120" data-name="Rectangle 120" width="10.789" height="2.697" transform="translate(818.885 3015.254)" fill="#ee6d52"/>
      <path id="Path_89" data-name="Path 89" d="M132.047,42.667a4.046,4.046,0,1,0,4.046,4.046A4.046,4.046,0,0,0,132.047,42.667Zm0,5.395a1.349,1.349,0,1,1,1.349-1.349A1.349,1.349,0,0,1,132.047,48.062Z" transform="translate(693.582 2932.126)" fill="#ee6d52"/>
      <path id="Path_90" data-name="Path 90" d="M206.714,117.333a4.046,4.046,0,1,0,4.046,4.046A4.046,4.046,0,0,0,206.714,117.333Zm0,5.395a1.349,1.349,0,1,1,1.349-1.349A1.349,1.349,0,0,1,206.714,122.728Z" transform="translate(628.355 2866.901)" fill="#ee6d52"/>
      <rect id="Rectangle_121" data-name="Rectangle 121" width="9.537" height="2.697" transform="translate(816.583 2985.978) rotate(-45)" fill="#ee6d52"/>
      <rect id="Rectangle_122" data-name="Rectangle 122" width="2.697" height="9.537" transform="translate(826.018 2981.146) rotate(-45)" fill="#ee6d52"/>
      <path id="Path_91" data-name="Path 91" d="M281.38,42.667a4.046,4.046,0,1,0,4.046,4.046A4.046,4.046,0,0,0,281.38,42.667Zm0,5.395a1.349,1.349,0,1,1,1.349-1.349A1.349,1.349,0,0,1,281.38,48.062Z" transform="translate(563.13 2932.126)" fill="#ee6d52"/>
      <rect id="Rectangle_123" data-name="Rectangle 123" width="9.537" height="2.697" transform="translate(835.464 2985.983) rotate(-45)" fill="#ee6d52"/>
    </g>
  </g>
</svg>
